# xmcd
#
# Track frame offsets:
#	180
#	16703
#	32839
#	49839
#	68026
#	86778
#	102526
#	118585
#	129923
#	145221
#	163009
#	181074
#	198488
#	213034
#	230822
#
# Disc length: 3273 seconds
#
# Revision: 1
# Processed by: cddbd v1.5.1PL0 Copyright (c) Steve Scherf et al.
# Submitted via: audiograbber 1.82.02
#
DISCID=cd0cc70f
DTITLE=Various Artist - Sound Choice 8137 Country Hits Vol 15
DYEAR=1900
DGENRE=Karaoke
TTITLE0=Alan Jackson - Tonight I climbed the wall
TTITLE1=Blackhawk - I sure can smell the rain
TTITLE2=Randy Travis - I'd surrender all
TTITLE3=Lari White - Now I know
TTITLE4=Collin Raye  - Little Rock
TTITLE5=Brother Phelps - Ever changing woman
TTITLE6=Shenandoah - I'll go down loving you
TTITLE7=Alan Jackson - She's got the rhythm ( and I got the blues )
TTITLE8=Reba McEntire - They asked about you
TTITLE9=Neal McCoy - No doubt about it
TTITLE10=Suzy Bogguss - Souvenirs
TTITLE11=Jamie O'Hara - 50,000 Names
TTITLE12=John Anderson - Money in the bank
TTITLE13=Tanya Tucker - You just watch me
TTITLE14=Alan Jackson - You can't give up on love
EXTD=
EXTT0=
EXTT1=
EXTT2=
EXTT3=
EXTT4=
EXTT5=
EXTT6=
EXTT7=
EXTT8=
EXTT9=
EXTT10=
EXTT11=
EXTT12=
EXTT13=
EXTT14=
PLAYORDER=
